<svg width="137" height="28" viewBox="0 0 137 28" fill="none" xmlns="http://www.w3.org/2000/svg">
<path d="M0.966 27H11.844V0.539998H0.966V0.875998C3.318 1.212 4.284 2.262 4.284 5.748V21.792C4.284 25.236 3.318 26.328 0.966 26.664V27ZM30.24 13.728C30.24 5.202 23.688 1.002 13.902 0.539998V0.875998C14.91 1.002 15.876 1.296 16.8 1.842C20.118 3.69 22.092 7.302 22.092 13.686C22.092 19.944 20.454 23.724 17.64 25.446C16.674 26.076 15.036 26.58 13.902 26.622V27C15.708 26.958 17.514 26.706 19.068 26.244C25.452 24.438 30.24 20.196 30.24 13.728ZM39.5328 21.792C39.5328 25.236 38.5668 26.328 36.2148 26.664V27H50.4108V26.664C48.2268 26.328 47.0928 25.446 47.0928 21.792V5.748C47.0928 2.094 48.2268 1.212 50.4108 0.875998V0.539998H36.2148V0.875998C38.5668 1.212 39.5328 2.262 39.5328 5.748V21.792ZM67.8047 6.588C67.1747 5.118 66.7967 4.026 66.7967 3.144C66.7967 1.506 68.0147 1.002 69.5687 0.875998V0.539998H54.2387V0.875998C56.3807 1.17 57.8507 2.472 59.2367 5.874L67.7627 27.168H69.4007L72.7187 19.02L67.8047 6.588ZM73.4747 0.539998V0.875998C75.7007 1.086 76.8347 2.178 76.8347 4.152C76.8347 5.16 76.3727 7.302 76.2467 7.974L76.5827 8.142C77.4227 6 78.2207 4.404 79.3967 3.102C80.5307 1.884 81.8747 1.17 83.4707 0.875998V0.539998H73.4747ZM90.0149 21.792C90.0149 25.236 89.0489 26.328 86.6969 26.664V27H100.893V26.664C98.7089 26.328 97.5749 25.446 97.5749 21.792V5.748C97.5749 2.094 98.7089 1.212 100.893 0.875998V0.539998H86.6969V0.875998C89.0489 1.212 90.0149 2.262 90.0149 5.748V21.792ZM117.684 27V26.664C116.214 26.454 114.492 25.74 113.358 24.186C112.476 23.01 111.846 20.07 111.846 18.6H111.426C111.426 20.028 110.796 23.052 109.914 24.27C108.906 25.656 107.604 26.454 106.008 26.664V27H117.684ZM127.554 27.084H131.208V18.558L117.558 0.539998H105.336V0.875998C106.512 1.044 107.562 1.506 108.444 2.22C109.41 3.018 110.166 3.858 110.838 4.824L127.554 27.084ZM124.95 0.539998V0.875998C126.42 1.044 128.142 1.8 129.276 3.354C130.158 4.572 130.788 7.092 130.788 8.604H131.208C131.208 7.134 131.838 4.446 132.72 3.27C133.686 1.884 134.988 1.086 136.626 0.875998V0.539998H124.95Z" fill="#53503E"/>
</svg>
